<?xml version="1.0" encoding="UTF-8" standalone="no"?>
<svg width="114px" height="113px" viewBox="0 0 114 113" version="1.1" xmlns="http://www.w3.org/2000/svg" xmlns:xlink="http://www.w3.org/1999/xlink">
  <defs></defs>
  <g stroke="none" stroke-width="1" fill="none" fill-rule="evenodd">
    <g transform="translate(-456.000000, -217.000000)">
      <g transform="translate(218.000000, 217.000000)">
        <g transform="translate(244.000000, 0.000000)">
          <g>
            <path d="M6.548,103.667 C6.548,98.696 10.577,94.667 15.548,94.667 C20.519,94.667 24.548,98.696 24.548,103.667 C24.548,108.637 20.519,112.667 15.548,112.667 C10.577,112.667 6.548,108.637 6.548,103.667" fill="#252624"></path>
            <path d="M47.548,103.667 C47.548,98.696 51.577,94.667 56.548,94.667 C61.519,94.667 65.548,98.696 65.548,103.667 C65.548,108.637 61.519,112.667 56.548,112.667 C51.577,112.667 47.548,108.637 47.548,103.667" fill="#252624"></path>
            <path d="M0.960911947,36.0282516 L15.548,81 L20.7460938,81 L56.548,81 L68.8932147,62.2741842 L11.1573553,62.2741842" stroke="#252624" stroke-width="12" stroke-linecap="round" stroke-linejoin="round"></path>
            <path d="M34,36.667 C34,16.416 50.417,0 70.667,0 C90.917,0 107.334,16.416 107.334,36.667 C107.334,56.917 90.917,73.333 70.667,73.333 C50.417,73.333 34,56.917 34,36.667" fill="#E4E4E4"></path>
          </g>
        </g>
      </g>
    </g>
  </g>
</svg>
