<?xml version="1.0" encoding="UTF-8" standalone="no"?>
<svg width="106px" height="106px" viewBox="0 0 106 106" version="1.1" xmlns="http://www.w3.org/2000/svg" xmlns:xlink="http://www.w3.org/1999/xlink">
    <defs></defs>
    <g stroke="none" stroke-width="1" fill="none" fill-rule="evenodd">
        <g transform="translate(-32.000000, -32.000000)">
            <g transform="translate(32.000000, 32.000000)">
                <g>
                    <rect fill="#2C2C2C" x="0" y="0" width="106" height="106"></rect>
                    <path d="M38.03,63 L35.36,63 L30.5,53.52 L25.37,53.52 L25.37,63 L23.09,63 L23.09,41.64 L31.28,41.64 C33.1600094,41.64 34.6849942,42.1749946 35.855,43.245 C37.0250059,44.3150053 37.61,45.7599909 37.61,47.58 C37.61,49.1000076 37.1900042,50.359995 36.35,51.36 C35.5099958,52.360005 34.3800071,53.0099985 32.96,53.31 L38.03,63 Z M35.33,47.61 C35.33,46.3499937 34.9400039,45.3800034 34.16,44.7 C33.3799961,44.0199966 32.3500064,43.68 31.07,43.68 L25.37,43.68 L25.37,51.51 L31.07,51.51 C32.3700065,51.51 33.4049962,51.1750033 34.175,50.505 C34.9450039,49.8349966 35.33,48.8700063 35.33,47.61 L35.33,47.61 Z M57.44,57.09 C57.44,58.9900095 56.8650058,60.4499949 55.715,61.47 C54.5649943,62.4900051 53.0200097,63 51.08,63 L42.77,63 L42.77,41.64 L50.81,41.64 C52.6900094,41.64 54.2099942,42.1499949 55.37,43.17 C56.5300058,44.1900051 57.11,45.5799912 57.11,47.34 C57.11,48.4400055 56.815003,49.4099958 56.225,50.25 C55.6349971,51.0900042 54.8800046,51.6799983 53.96,52.02 C56.2800116,52.8800043 57.44,54.5699874 57.44,57.09 L57.44,57.09 Z M54.83,47.37 C54.83,46.1499939 54.4450039,45.2300031 53.675,44.61 C52.9049962,43.9899969 51.8900063,43.68 50.63,43.68 L45.05,43.68 L45.05,51.09 L50.63,51.09 C51.8700062,51.09 52.8799961,50.7750031 53.66,50.145 C54.4400039,49.5149968 54.83,48.5900061 54.83,47.37 L54.83,47.37 Z M55.16,57.03 C55.16,55.829994 54.7750039,54.8800035 54.005,54.18 C53.2349962,53.4799965 52.1900066,53.13 50.87,53.13 L45.05,53.13 L45.05,60.96 L50.87,60.96 C52.1900066,60.96 53.2349962,60.6050035 54.005,59.895 C54.7750039,59.1849964 55.16,58.230006 55.16,57.03 L55.16,57.03 Z M84.86,41.64 L79.4,63 L77.27,63 L72.53,45.9 L67.79,63 L65.66,63 L60.2,41.64 L62.63,41.64 L66.8,58.86 L71.51,41.64 L73.55,41.64 L78.26,58.86 L82.43,41.64 L84.86,41.64 Z" fill="#FFFFFF"></path>
                </g>
            </g>
        </g>
    </g>
</svg>